<?xml version="1.0" encoding="UTF-8"?>
<!DOCTYPE svg PUBLIC "-//W3C//DTD SVG 1.1//EN" "http://www.w3.org/Graphics/SVG/1.1/DTD/svg11.dtd">
<!-- Creator: CorelDRAW 2021 (64-Bit) -->
<svg xmlns="http://www.w3.org/2000/svg" xml:space="preserve" width="2.24746in" height="1.78256in" version="1.1" style="shape-rendering:geometricPrecision; text-rendering:geometricPrecision; image-rendering:optimizeQuality; fill-rule:evenodd; clip-rule:evenodd"
viewBox="0 0 2247.46 1782.56"
 xmlns:xlink="http://www.w3.org/1999/xlink"
 xmlns:xodm="http://www.corel.com/coreldraw/odm/2003">
 <defs>
  <style type="text/css">
   <![CDATA[
    .fil0 {fill:#7B11F8}
   ]]>
  </style>
 </defs>
 <g id="Layer_x0020_1">
  <metadata id="CorelCorpID_0Corel-Layer"/>
  <path class="fil0" d="M1299.07 872.16c133.28,48.65 184.44,84.93 203.28,194.64 20,116.43 -29.4,213.47 -113.49,264.31 -98.18,59.37 -496.23,79.14 -597.3,43.93 0.76,-216.56 1.53,-433.12 2.29,-649.68 0.11,-31.92 -0.83,-288.02 1.46,-295.84 2.01,-6.85 15.35,-7.51 21.39,-8.37 84.78,-12.01 198.74,-0.24 288.76,-1.46 117.76,-1.61 245.96,5.53 318.6,113.33 69.35,102.93 37.18,240.86 -64.74,308.78l-2.21 1.47 -2.31 1.52c-16.61,10.77 -34.35,19.57 -52.95,26.36l-2.78 1.02zm274.23 -872.96c-229,-3.23 -458.9,7.81 -687.38,5.71 -116.83,-1.07 -230.91,-0.63 -347.65,0.36 -48.31,0.48 -146.62,0.26 -188.73,27.81 -81.12,53.06 -118.39,167.39 -107.24,260.62 10.27,86.07 -16.13,258.04 -42.15,341.56 -53.8,171.06 -118.91,172.04 -202.93,206.81l-0.14 106.54c87.66,24.58 125.13,51.5 162.74,113.35 21.48,35.32 57.28,122.37 57.65,174.25 21.84,44.34 25.07,183.22 24.09,243.8 -5.46,334.2 178.86,303.85 444.14,303.93l1049.53 0.31c119,-0.09 216.29,-37.41 250.69,-167.12 9.98,-37.65 4.34,-227.89 24.86,-359.25 26.81,-171.71 65.33,-251.02 224.62,-304.68 10.77,-43.05 4.08,-66.46 2.17,-111.65 -104.74,-32.87 -141.72,-69.2 -179.64,-144.67 -43.4,-86.37 -70.19,-291.46 -64.81,-392.5 5.91,-30 -4.18,-126.33 -13.09,-150.94 -12.08,-33.39 -38.76,-77.54 -77.5,-104.92 -88.18,-62.32 -221.83,-40.11 -329.22,-49.32z"/>
  <path class="fil0" d="M947.5 952.11l-3.78 302.09c40.22,8.93 199.76,6.19 245.66,1.82 210.15,-20 226.56,-269 15.18,-304.83 -60.92,-10.32 -204.21,-13.93 -257.06,0.92z"/>
  <path class="fil0" d="M948.98 825.11c41.33,7.67 176.16,5.56 218.28,-0.68 66.2,-9.8 134.04,-42.17 139.63,-133.61 5.07,-121.48 -113.24,-144.71 -209.56,-148.42 -43.52,-1.68 -88.05,0.56 -131.41,4.52 -16.9,1.56 -15.41,2.78 -17.72,18.88 -6.36,44.46 -6.89,101.05 -6.67,146.15 0.12,24.94 0.64,90.46 7.43,113.16z"/>
 </g>
</svg>
