<?xml version="1.0" encoding="UTF-8"?>
<!DOCTYPE svg PUBLIC "-//W3C//DTD SVG 1.1//EN" "http://www.w3.org/Graphics/SVG/1.1/DTD/svg11.dtd">
<!-- Creator: CorelDRAW X7 -->
<svg xmlns="http://www.w3.org/2000/svg" xml:space="preserve" width="0.833331in" height="0.833331in" version="1.1" style="shape-rendering:geometricPrecision; text-rendering:geometricPrecision; image-rendering:optimizeQuality; fill-rule:evenodd; clip-rule:evenodd"
viewBox="0 0 833 833"
 xmlns:xlink="http://www.w3.org/1999/xlink">
 <defs>
  <style type="text/css">
   <![CDATA[
    .fil2 {fill:none}
    .fil0 {fill:#3385FD}
    .fil1 {fill:white}
   ]]>
  </style>
 </defs>
 <g id="Layer_x0020_1">
  <metadata id="CorelCorpID_0Corel-Layer"/>
  <rect class="fil0" width="833" height="833" rx="167" ry="138"/>
  <path class="fil1" d="M603 424c38,0 69,30 69,68 0,38 -31,69 -69,69l-1 0 -151 0 -1 0 0 0 -177 0 -1 0c-61,0 -110,-49 -110,-110 0,-61 49,-111 110,-111 18,0 35,4 49,12 24,-47 73,-80 129,-80 80,0 144,65 144,145 0,2 0,5 0,7 3,0 6,0 9,0z"/>
  <rect class="fil2" x="234" y="367" width="366.008" height="99.9528"/>
 </g>
</svg>
